<?xml version="1.0" encoding="UTF-8" standalone="no"?>
<svg
   xmlns:dc="http://purl.org/dc/elements/1.1/"
   xmlns:cc="http://creativecommons.org/ns#"
   xmlns:rdf="http://www.w3.org/1999/02/22-rdf-syntax-ns#"
   xmlns:svg="http://www.w3.org/2000/svg"
   xmlns="http://www.w3.org/2000/svg"
   xmlns:xlink="http://www.w3.org/1999/xlink"
   xmlns:sodipodi="http://sodipodi.sourceforge.net/DTD/sodipodi-0.dtd"
   xmlns:inkscape="http://www.inkscape.org/namespaces/inkscape"
   viewBox="-147 -68 294 343"
   id="svg2"
   version="1.1"
   inkscape:version="0.48.4 r9939"
   width="100%"
   height="100%"
   sodipodi:docname="Android_robot.svg">
  <metadata
     id="metadata33">
    <rdf:RDF>
      <cc:Work
         rdf:about="">
        <dc:format>image/svg+xml</dc:format>
        <dc:type
           rdf:resource="http://purl.org/dc/dcmitype/StillImage" />
        <dc:title></dc:title>
      </cc:Work>
    </rdf:RDF>
  </metadata>
  <defs
     id="defs31">
    <filter
       id="filter3038"
       style="color-interpolation-filters:sRGB;"
       inkscape:label="Drop Shadow">
      <feFlood
         id="feFlood3040"
         flood-opacity="0.5"
         flood-color="rgb(0,0,0)"
         result="flood" />
      <feComposite
         id="feComposite3042"
         in2="SourceGraphic"
         in="flood"
         operator="in"
         result="composite1" />
      <feGaussianBlur
         id="feGaussianBlur3044"
         in="composite"
         stdDeviation="2"
         result="blur" />
      <feOffset
         id="feOffset3046"
         dx="4"
         dy="4"
         result="offset" />
      <feComposite
         id="feComposite3048"
         in2="offset"
         in="SourceGraphic"
         operator="over"
         result="composite2" />
    </filter>
  </defs>
  <sodipodi:namedview
     pagecolor="#ffffff"
     bordercolor="#666666"
     borderopacity="1"
     objecttolerance="10"
     gridtolerance="10"
     guidetolerance="10"
     inkscape:pageopacity="0"
     inkscape:pageshadow="2"
     inkscape:window-width="1920"
     inkscape:window-height="1141"
     id="namedview29"
     showgrid="false"
     inkscape:zoom="1.9460898"
     inkscape:cx="215.57882"
     inkscape:cy="179.21238"
     inkscape:window-x="1680"
     inkscape:window-y="27"
     inkscape:window-maximized="1"
     inkscape:current-layer="svg2" />
  <g
     id="g3010"
     transform="matrix(0.71608511,0,0,0.71608511,10.277018,18.356324)"
     style="filter:url(#filter3038)"
     inkscape:export-filename="/home/morgenro/sources/rural-explorer.git/clipart/android_icon.png"
     inkscape:export-xdpi="326.97925"
     inkscape:export-ydpi="326.97925">
    <g
       id="g4"
       style="fill:#a4c639">
      <use
         id="use6"
         xlink:href="#b"
         style="stroke:#ffffff;stroke-width:14.39999962"
         x="0"
         y="0"
         width="294"
         height="343" />
      <use
         id="use8"
         transform="scale(-1,1)"
         xlink:href="#a"
         x="0"
         y="0"
         width="294"
         height="343" />
      <g
         id="a"
         style="stroke:#ffffff;stroke-width:7.19999981">
        <rect
           id="rect11"
           x="14"
           y="-86"
           width="13"
           height="86"
           transform="matrix(0.87461971,0.48480962,-0.48480962,0.87461971,0,0)"
           rx="6.5" />
        <rect
           x="-143"
           y="41"
           width="48"
           height="133"
           rx="24"
           id="c" />
        <use
           id="use14"
           xlink:href="#c"
           x="85"
           y="97"
           width="294"
           height="343" />
      </g>
      <g
         id="b">
        <ellipse
           d="m 91,41 c 0,46.391919 -40.742088,84 -91,84 -50.257912,0 -91,-37.608081 -91,-84 0,-46.391919 40.742088,-84 91,-84 50.257912,0 91,37.608081 91,84 z"
           id="ellipse17"
           ry="84"
           rx="91"
           cy="41"
           cx="0"
           sodipodi:cx="0"
           sodipodi:cy="41"
           sodipodi:rx="91"
           sodipodi:ry="84" />
        <rect
           id="rect19"
           x="-91"
           y="20"
           width="182"
           height="182"
           rx="22" />
      </g>
    </g>
    <g
       id="g21"
       style="fill:#ffffff;stroke:#ffffff;stroke-width:7.19999981">
      <path
         id="path23"
         d="M -95,44.5 H 95"
         inkscape:connector-curvature="0" />
      <circle
         id="circle25"
         r="4"
         cx="-42"
         d="m -38,0 c 0,2.209139 -1.790861,4 -4,4 -2.209139,0 -4,-1.790861 -4,-4 0,-2.209139 1.790861,-4 4,-4 2.209139,0 4,1.790861 4,4 z"
         cy="0"
         sodipodi:cx="-42"
         sodipodi:cy="0"
         sodipodi:rx="4"
         sodipodi:ry="4" />
      <circle
         id="circle27"
         r="4"
         cx="42"
         d="m 46,0 c 0,2.209139 -1.790861,4 -4,4 -2.209139,0 -4,-1.790861 -4,-4 0,-2.209139 1.790861,-4 4,-4 2.209139,0 4,1.790861 4,4 z"
         cy="0"
         sodipodi:cx="42"
         sodipodi:cy="0"
         sodipodi:rx="4"
         sodipodi:ry="4" />
    </g>
  </g>
</svg>
