<?xml version="1.0" encoding="UTF-8" standalone="no"?>
<svg
   xmlns:dc="http://purl.org/dc/elements/1.1/"
   xmlns:cc="http://creativecommons.org/ns#"
   xmlns:rdf="http://www.w3.org/1999/02/22-rdf-syntax-ns#"
   xmlns:svg="http://www.w3.org/2000/svg"
   xmlns="http://www.w3.org/2000/svg"
   xmlns:sodipodi="http://sodipodi.sourceforge.net/DTD/sodipodi-0.dtd"
   xmlns:inkscape="http://www.inkscape.org/namespaces/inkscape"
   viewBox="0 0 570 720"
   id="svg2"
   version="1.1"
   inkscape:version="0.48.4 r9939"
   width="100%"
   height="100%"
   sodipodi:docname="Raspberry_Pi_Logo.svg">
  <metadata
     id="metadata36">
    <rdf:RDF>
      <cc:Work
         rdf:about="">
        <dc:format>image/svg+xml</dc:format>
        <dc:type
           rdf:resource="http://purl.org/dc/dcmitype/StillImage" />
        <dc:title></dc:title>
      </cc:Work>
    </rdf:RDF>
  </metadata>
  <defs
     id="defs34">
    <filter
       id="filter3053"
       style="color-interpolation-filters:sRGB;"
       inkscape:label="Drop Shadow">
      <feFlood
         id="feFlood3055"
         flood-opacity="0.5"
         flood-color="rgb(0,0,0)"
         result="flood" />
      <feComposite
         id="feComposite3057"
         in2="SourceGraphic"
         in="flood"
         operator="in"
         result="composite1" />
      <feGaussianBlur
         id="feGaussianBlur3059"
         in="composite"
         stdDeviation="2"
         result="blur" />
      <feOffset
         id="feOffset3061"
         dx="4"
         dy="4"
         result="offset" />
      <feComposite
         id="feComposite3063"
         in2="offset"
         in="SourceGraphic"
         operator="over"
         result="composite2" />
    </filter>
  </defs>
  <sodipodi:namedview
     pagecolor="#ffffff"
     bordercolor="#666666"
     borderopacity="1"
     objecttolerance="10"
     gridtolerance="10"
     guidetolerance="10"
     inkscape:pageopacity="0"
     inkscape:pageshadow="2"
     inkscape:window-width="1920"
     inkscape:window-height="1141"
     id="namedview32"
     showgrid="false"
     inkscape:zoom="1.3111111"
     inkscape:cx="483.79463"
     inkscape:cy="361.09498"
     inkscape:window-x="1680"
     inkscape:window-y="27"
     inkscape:window-maximized="1"
     inkscape:current-layer="svg2" />
  <g
     id="g3013"
     style="filter:url(#filter3053)"
     inkscape:export-filename="/home/morgenro/sources/rural-explorer.git/clipart/pi_icon.png"
     inkscape:export-xdpi="125.81412"
     inkscape:export-ydpi="125.81412">
    <path
       style="fill:#000000"
       inkscape:connector-curvature="0"
       id="path4"
       d="m 187.94639,39.729036 c -3.08736,0.0958 -6.41237,1.23629 -10.18342,4.21181 -9.23828,-3.56249 -18.19505,-4.80006 -26.20497,2.45254 -12.36887,-1.60437 -16.38833,1.70622 -19.43364,5.57128 -2.71518,-0.0563 -20.31822,-2.7911 -28.39041,9.25022 -20.285812,-2.40042 -26.697156,11.93213 -19.432786,25.29734 -4.143063,6.4139 -8.436001,12.75018 1.252924,24.977454 -3.427458,6.81014 -1.302912,14.19777 6.770895,23.13834 -2.130774,9.57351 2.057584,16.32777 9.570097,21.59179 -1.40502,13.10078 12.01402,20.71745 16.02068,23.43177 1.53861,7.63348 4.7453,14.83669 20.07256,18.81947 2.52769,11.37595 11.73934,13.34047 20.65944,15.72809 -29.48229,17.13729 -54.76513,39.68533 -54.59367,95.01004 l -4.318443,7.70385 c -33.805423,20.55793 -64.220067,86.63333 -16.659599,140.33985 3.106635,16.81144 8.316663,28.88687 12.955759,42.25123 6.938343,53.85239 52.220553,79.06869 64.163773,82.05087 17.50153,13.33109 36.14101,25.98062 61.36499,34.841 23.7781,24.52365 49.53863,33.87025 75.43992,33.8549 0.37972,-2.4e-4 0.76646,0.004 1.14629,0 25.90128,0.0161 51.66097,-9.3304 75.43992,-33.8549 25.22313,-8.86038 43.86345,-21.50991 61.36499,-34.841 11.94322,-2.98209 57.22525,-28.19848 64.16377,-82.05087 4.63867,-13.36436 9.84903,-25.43979 12.95576,-42.25123 47.55961,-53.71079 17.14582,-119.79045 -16.66046,-140.34838 l -4.32484,-7.70282 c 0.17118,-55.32045 -25.11138,-77.86849 -54.59367,-95.01005 8.9201,-2.3871 18.13193,-4.35162 20.65944,-15.72809 15.32717,-3.98346 18.53455,-11.18659 20.07256,-18.81946 4.00734,-2.71373 17.42561,-10.331 16.02068,-23.43178 7.51235,-5.26453 11.70096,-12.01913 9.5701,-21.59179 8.07381,-8.94057 10.19878,-16.32777 6.77089,-23.13833 9.69038,-12.222164 5.39113,-18.558444 1.25395,-24.972344 7.25925,-13.36521 0.85303,-27.69776 -19.44046,-25.29734 -8.06963,-12.04132 -25.66756,-9.30652 -28.38871,-9.25022 -3.0453,-3.86506 -7.06305,-7.17565 -19.43193,-5.57128 -8.00992,-7.2526 -16.96669,-6.01503 -26.20496,-2.45245 -10.96992,-8.65651 -18.22917,-1.7174 -26.52058,0.90626 -13.28162,-4.33995 -16.31839,1.60454 -22.84404,4.02525 -14.48438,-3.06074 -18.886,3.60319 -25.82963,10.63639 l -8.07713,-0.15995 c -21.84685,12.87473 -32.6999,39.09078 -36.54705,52.567744 -3.84894,-13.479524 -14.67717,-39.695574 -36.51975,-52.567744 l -8.07714,0.15995 c -6.95216,-7.0332 -11.35377,-13.69704 -25.83816,-10.63639 -6.52565,-2.42071 -9.55389,-8.3652 -22.84403,-4.02525 -5.44205,-1.72184 -10.44701,-5.30105 -16.34057,-5.11816 z" />
    <path
       style="fill:#75a928"
       inkscape:connector-curvature="0"
       id="path6"
       d="m 144.45059,96.369796 c 57.96142,29.882354 91.65765,54.055414 110.11714,74.643194 -9.45324,37.88971 -58.77009,39.61879 -76.80306,38.55592 3.69224,-1.71859 6.77294,-3.77702 7.86533,-6.93996 -4.52488,-3.21574 -20.56902,-0.33881 -31.7701,-6.63159 4.30275,-0.89142 6.31538,-1.7598 8.32801,-4.9351 -10.58265,-3.37517 -21.98164,-6.28373 -28.68557,-11.87498 3.61794,0.0447 6.99584,0.80935 11.72058,-2.46755 -9.47883,-5.10809 -19.59316,-9.15638 -27.45123,-16.96413 4.9008,-0.11996 10.18428,-0.0484 11.72058,-1.85064 -8.67528,-5.37466 -15.9951,-11.35207 -22.05414,-17.88966 6.85833,0.82788 9.75435,0.11497 11.41264,-1.07959 -6.5579,-6.7169 -14.85801,-12.3885 -18.8152,-20.66541 5.09222,1.7551 9.75094,2.42695 13.1093,-0.15422 -2.22844,-5.02731 -11.77602,-7.99252 -17.27292,-19.740734 5.36076,0.51981 11.04669,1.16958 12.18377,0 -2.48828,-10.13736 -6.75767,-15.83643 -10.945176,-21.74108 11.473196,-0.1706 28.856166,0.0444 28.068826,-0.92553 l -7.09419,-7.24842 c 11.20705,-3.01732 22.67428,0.48466 30.99896,3.08446 3.73788,-2.94951 -0.0662,-6.6792 -4.62664,-10.48711 9.52404,1.27153 18.13022,3.46107 25.90896,6.47737 4.15629,-3.75271 -2.69889,-7.50552 -6.01468,-11.25824 14.71384,2.79162 20.94776,6.71392 27.14329,10.6415 4.49493,-4.30846 0.25732,-7.97007 -2.77601,-11.72057 11.09446,4.10902 16.80888,9.41399 22.82527,14.65072 2.03976,-2.7528 5.18205,-4.77046 1.38805,-11.41264 7.87701,4.54041 13.80964,9.89084 18.19846,15.88505 4.87368,-3.10322 2.90361,-7.34711 2.93023,-11.25823 8.18615,6.65914 13.38142,13.74566 19.74073,20.66541 1.28098,-0.9327 2.40263,-4.09598 3.39291,-9.09923 19.53003,18.94741 47.12627,66.670814 7.09419,85.592634 -34.06986,-28.09868 -74.75921,-48.52268 -119.85017,-63.843884 z" />
    <path
       style="fill:#75a928"
       inkscape:connector-curvature="0"
       id="path8"
       d="m 451.99208,96.369796 c -57.95459,29.884914 -91.64912,54.051144 -110.10861,74.643194 9.45324,37.88971 58.77009,39.61879 76.80306,38.55592 -3.69224,-1.71859 -6.77294,-3.77702 -7.86533,-6.93996 4.52488,-3.21574 20.56902,-0.33881 31.7701,-6.63159 -4.30274,-0.89142 -6.31537,-1.7598 -8.328,-4.9351 10.58264,-3.37517 21.98163,-6.28373 28.68556,-11.87498 -3.61794,0.0447 -6.99584,0.80935 -11.72058,-2.46755 9.47882,-5.10809 19.59315,-9.15638 27.45123,-16.96413 -4.9008,-0.11996 -10.18428,-0.0484 -11.72058,-1.85064 8.67528,-5.37466 15.99509,-11.35207 22.05414,-17.88966 -6.85833,0.82788 -9.75435,0.11497 -11.41264,-1.07959 6.5579,-6.7169 14.85801,-12.3885 18.8152,-20.66541 -5.09223,1.7551 -9.75094,2.42695 -13.10931,-0.15422 2.22845,-5.02731 11.77603,-7.99252 17.27293,-19.740734 -5.36076,0.51981 -11.04669,1.16958 -12.18377,0 2.4928,-10.14163 6.76236,-15.8407 10.94944,-21.74534 -11.4732,-0.17038 -28.85617,0.0446 -28.06882,-0.92537 l 7.09419,-7.24841 c -11.20706,-3.01733 -22.67429,0.48465 -30.99897,3.08445 -3.73787,-2.94951 0.0662,-6.67919 4.62664,-10.4871 -9.52403,1.27152 -18.13021,3.46107 -25.90896,6.47737 -4.15628,-3.75272 2.69889,-7.50552 6.01469,-11.25824 -14.71385,2.79161 -20.94776,6.71391 -27.14329,10.6415 -4.49493,-4.30846 -0.25732,-7.97008 2.776,-11.72058 -11.09445,4.10903 -16.80887,9.414 -22.82527,14.65072 -2.03975,-2.7528 -5.18205,-4.77046 -1.38804,-11.41263 -7.87701,4.5404 -13.80964,9.89084 -18.19846,15.88505 -4.87368,-3.10322 -2.90361,-7.34711 -2.93023,-11.25824 -8.18615,6.65915 -13.38142,13.74566 -19.74073,20.66541 -1.28099,-0.9327 -2.40263,-4.09597 -3.39291,-9.09923 -19.53003,18.94742 -47.12628,66.670814 -7.09419,85.592644 34.05195,-28.10465 74.73873,-48.52695 119.8331,-63.848154 z" />
    <path
       style="fill:#bc1142"
       inkscape:connector-curvature="0"
       id="path10"
       d="m 368.41356,482.19839 a 69.427736,64.020802 0 1 1 -138.85354,0 69.427736,64.020802 0 1 1 138.85354,0 z" />
    <path
       style="fill:#bc1142"
       inkscape:connector-curvature="0"
       id="path12"
       d="m 258.81428,299.31382 a 62.269911,73.470856 34.034226 1 1 -81.01003,122.5903 62.269911,73.470856 34.034226 0 1 81.01003,-122.5903 z" />
    <path
       style="fill:#bc1142"
       inkscape:connector-curvature="0"
       id="path14"
       d="m 336.45993,295.90172 a 73.470856,62.269911 55.965774 1 0 81.01004,122.5903 73.470856,62.269911 55.965774 0 0 -81.01004,-122.5903 z" />
    <path
       style="fill:#bc1142"
       inkscape:connector-curvature="0"
       id="path16"
       d="m 115.03825,330.12794 c 31.05868,-8.32553 10.4854,128.49132 -14.7855,117.26549 -27.797559,-22.35781 -36.750921,-87.83609 14.7855,-117.26549 z" />
    <path
       style="fill:#bc1142"
       inkscape:connector-curvature="0"
       id="path18"
       d="m 473.96603,328.42189 c -31.06209,-8.32289 -10.4854,128.49984 14.7855,117.27402 27.79756,-22.36037 36.75092,-87.84462 -14.7855,-117.27402 z" />
    <path
       style="fill:#bc1142"
       inkscape:connector-curvature="0"
       id="path20"
       d="m 368.43818,226.53646 c 53.59989,-9.05061 98.20036,22.79456 96.40047,80.91634 -1.76312,22.2819 -116.14803,-77.59893 -96.40047,-80.91634 z" />
    <path
       style="fill:#bc1142"
       inkscape:connector-curvature="0"
       id="path22"
       d="m 220.34432,224.8304 c -53.60416,-9.0506 -98.20036,22.80139 -96.40048,80.91806 1.76321,22.28104 116.14804,-77.59979 96.40048,-80.91806 z" />
    <path
       style="fill:#bc1142"
       inkscape:connector-curvature="0"
       id="path24"
       d="m 297.33845,211.27582 c -31.99103,-0.83211 -62.69315,23.74313 -62.76736,37.99719 -0.0892,17.31984 25.29308,35.0534 62.98489,35.50295 38.49109,0.2757 63.05227,-14.19436 63.17596,-32.06866 0.14061,-20.25084 -35.00734,-41.74454 -63.39434,-41.43233 z" />
    <path
       style="fill:#bc1142"
       inkscape:connector-curvature="0"
       id="path26"
       d="m 299.29188,566.44175 c 27.8914,-1.21735 65.31706,8.98407 65.39042,22.51648 0.46294,13.14086 -33.9419,42.83129 -67.24063,42.2572 -34.48528,1.48759 -68.30094,-28.24881 -67.85822,-38.55592 -0.51613,-15.11221 41.99106,-26.91127 69.70843,-26.21776 z" />
    <path
       style="fill:#bc1142"
       inkscape:connector-curvature="0"
       id="path28"
       d="m 196.27193,486.24024 c 19.85759,23.92397 28.9099,65.95512 12.33817,78.34533 -15.67777,9.45835 -53.75088,5.56309 -80.81228,-33.31238 -18.2505,-32.62142 -15.8987,-65.81693 -3.08446,-75.56872 19.16238,-11.67281 48.77006,4.09367 71.5595,30.53577 z" />
    <path
       style="fill:#bc1142"
       inkscape:connector-curvature="0"
       id="path30"
       d="m 398.33674,478.65684 c -21.48517,25.16597 -33.44886,71.0656 -17.77536,85.84854 14.98596,11.48514 55.21553,9.87975 84.9324,-31.35383 21.57814,-27.69349 14.34789,-73.942 2.02235,-86.22387 -18.30935,-14.16194 -44.59364,3.96222 -69.17956,31.72233 z" />
  </g>
</svg>
